<svg width="67" height="64" viewBox="0 0 67 64" fill="none" xmlns="http://www.w3.org/2000/svg">
<path fill-rule="evenodd" clip-rule="evenodd" d="M38.3493 1.06171C37.8975 1.06171 37.478 1.1588 37.0907 1.28824C37.9136 1.83839 38.3654 2.56654 38.5913 3.39177C38.6075 3.50503 38.6397 3.58594 38.6559 3.6992C38.672 3.79629 38.6881 3.89338 38.6881 3.99046C38.7527 5.41439 38.317 5.59238 38.0104 6.43379C37.5425 7.51792 37.6716 8.68294 38.2363 9.62144C38.2847 9.73471 38.3493 9.86415 38.43 9.97742C37.8168 5.88364 41.2213 5.26876 41.8506 3.99046C41.899 2.87398 40.9793 2.12965 40.2532 1.61186C39.5594 1.19115 38.9301 1.06171 38.3493 1.06171ZM43.4802 1.98402C43.4157 2.35618 43.4641 2.2591 43.448 2.45327C43.4318 2.58272 43.4318 2.74453 43.4157 2.87397C43.3835 3.00342 43.3512 3.13287 43.3028 3.26232C43.2705 3.39177 43.2221 3.52122 43.1737 3.65066C43.1091 3.78011 43.0608 3.89338 42.9962 4.02282C42.9478 4.08757 42.9155 4.15227 42.8671 4.217C42.8349 4.26554 42.8026 4.31408 42.7703 4.36263C42.6897 4.4759 42.609 4.58916 42.5283 4.68624C42.4315 4.78333 42.3508 4.89659 42.2379 4.97751V4.99371C42.1411 5.07461 42.0442 5.1717 41.9313 5.2526C41.5925 5.51149 41.2052 5.70567 40.8503 5.94838C40.7373 6.02928 40.6244 6.09401 40.5276 6.1911C40.4146 6.272 40.3178 6.3529 40.221 6.44999C40.108 6.54708 40.0274 6.64416 39.9306 6.75743C39.8499 6.85452 39.7531 6.96778 39.6885 7.08105C39.6079 7.19431 39.5272 7.30758 39.4626 7.42085C39.3981 7.55029 39.3497 7.66357 39.2852 7.79301C39.2368 7.92245 39.1883 8.03573 39.1561 8.16517C39.1077 8.3108 39.0754 8.44025 39.0431 8.5697C39.027 8.63445 39.027 8.71533 39.0109 8.78005C38.9947 8.8448 38.9947 8.9095 38.9786 8.97423C38.9786 9.10367 38.9625 9.2493 38.9625 9.37875C38.9625 9.47583 38.9625 9.57292 38.9786 9.67001C38.9786 9.79945 38.9948 9.9289 39.027 10.0745C39.0432 10.204 39.0754 10.3334 39.1077 10.4629C39.1561 10.5923 39.1884 10.7218 39.2368 10.8512C39.2691 10.9321 39.3175 11.013 39.3498 11.0777L35.6387 9.63764C35.0094 9.45965 34.3963 9.29784 33.767 9.15221C33.4282 9.07131 33.0894 8.9904 32.7505 8.9095C31.7824 8.71533 30.7982 8.5697 29.8139 8.47262C29.7817 8.47262 29.7655 8.45641 29.7333 8.45641C28.7652 8.35933 27.8132 8.31079 26.8451 8.31079C26.1352 8.31079 25.4252 8.34312 24.7314 8.39169C23.7472 8.45644 22.7629 8.58586 21.7787 8.74767C21.5367 8.78001 21.2946 8.82858 21.0526 8.87712C20.5524 8.9742 20.0684 9.08747 19.6005 9.20074C19.3584 9.26549 19.1164 9.33019 18.8744 9.39491C18.6324 9.49199 18.4065 9.60526 18.1806 9.70235C18.0031 9.78325 17.8256 9.86416 17.6481 9.94506C17.6159 9.96127 17.5836 9.96127 17.5675 9.9774C17.4061 10.0583 17.2609 10.123 17.1157 10.2039C17.0673 10.2201 17.035 10.2363 17.0027 10.2525C16.8252 10.3334 16.6478 10.4305 16.5025 10.5114C16.3896 10.5599 16.2767 10.6246 16.1798 10.6732C16.1314 10.7055 16.0669 10.7379 16.0346 10.7541C15.8894 10.835 15.7442 10.9159 15.6151 10.9968C15.4699 11.0777 15.3408 11.1586 15.2279 11.2395C15.1149 11.3204 15.002 11.3851 14.9052 11.466C14.889 11.4822 14.8729 11.4822 14.8568 11.4984C14.76 11.5631 14.647 11.644 14.5502 11.7249C14.5502 11.7249 14.534 11.7411 14.518 11.7573C14.4373 11.822 14.3566 11.8867 14.2759 11.9514C14.2437 11.9676 14.2114 12 14.1791 12.0162C14.0984 12.0809 14.0178 12.1618 13.9371 12.2265C13.9209 12.2589 13.8887 12.2751 13.8725 12.2913C13.7757 12.3884 13.6789 12.4693 13.5821 12.5664C13.5659 12.5664 13.5659 12.5826 13.5499 12.5987C13.453 12.6796 13.3562 12.7767 13.2594 12.8738C13.2433 12.89 13.2433 12.9061 13.2272 12.9061C13.1465 12.987 13.0658 13.0679 12.9851 13.165C12.9529 13.1973 12.9045 13.2297 12.8722 13.2621C12.7915 13.3592 12.6947 13.4563 12.5979 13.5533C12.5818 13.5857 12.5495 13.6019 12.5333 13.6342C12.4043 13.7637 12.2913 13.8931 12.1622 14.0226C12.1461 14.0388 12.13 14.0549 12.1138 14.0711C11.8557 14.3462 11.5814 14.6213 11.291 14.864C11.0005 15.1229 10.694 15.3656 10.3874 15.576C10.0647 15.8025 9.75812 15.9967 9.41928 16.1908C9.09658 16.3688 8.75775 16.5306 8.40278 16.6763C8.06394 16.8219 7.70897 16.9514 7.354 17.0646C6.67633 17.2102 5.98252 17.4853 5.38552 17.5339C5.25644 17.5339 5.11123 17.5662 4.98215 17.5824C4.83693 17.6147 4.70786 17.6472 4.57878 17.6795C4.4497 17.728 4.32061 17.7766 4.19153 17.8251C4.06245 17.8737 3.93337 17.9384 3.8043 18.0031C3.69135 18.084 3.56227 18.1487 3.44932 18.2296C3.33638 18.3105 3.22343 18.4076 3.12662 18.5047C3.01368 18.5856 2.90073 18.6989 2.80392 18.796C2.70711 18.9092 2.6103 19.0063 2.52962 19.1196C2.44895 19.249 2.35214 19.3623 2.2876 19.4918C2.20692 19.605 2.12625 19.7345 2.06171 19.8639C1.99714 20.0096 1.93263 20.139 1.88422 20.2846C1.83582 20.4141 1.78741 20.5597 1.73901 20.7053C1.70676 20.8348 1.67444 20.9642 1.65833 21.0937C1.65833 21.1099 1.64217 21.126 1.64217 21.1422C1.60993 21.2878 1.60993 21.482 1.59377 21.5791C1.57761 21.6924 1.56152 21.7895 1.56152 21.9027C1.56152 21.9675 1.56152 22.0484 1.57768 22.1131C1.59384 22.2263 1.60993 22.3234 1.64225 22.4205C1.67449 22.5176 1.70682 22.6147 1.75519 22.7118V22.728C1.8036 22.8251 1.86814 22.9222 1.93267 23.0192C1.99724 23.1163 2.06176 23.2134 2.14243 23.3105C2.22311 23.3914 2.31992 23.4885 2.41673 23.5694C2.51354 23.6665 2.61035 23.7474 2.72329 23.8283C3.11054 24.1681 3.20735 24.2814 3.70753 24.5402C3.7882 24.5888 3.86889 24.6212 3.9657 24.6697C3.98186 24.6697 3.99794 24.6859 4.0141 24.6859C4.0141 24.7182 4.0141 24.7344 4.03026 24.7668C4.04642 24.8963 4.07867 25.0257 4.11094 25.1552C4.14318 25.3008 4.19162 25.4302 4.24002 25.5435C4.28843 25.6406 4.3207 25.7377 4.3691 25.8348C4.38526 25.8671 4.40135 25.8995 4.41751 25.9157C4.48207 26.0451 4.54659 26.1584 4.61112 26.2716C4.6918 26.3849 4.77248 26.4982 4.85315 26.6114C4.93382 26.7085 5.03063 26.8218 5.12744 26.9189C5.22426 27.016 5.32107 27.0969 5.43402 27.1939C5.43402 27.1939 5.45018 27.2102 5.46626 27.2102C5.56307 27.2911 5.65988 27.372 5.75669 27.4367C5.86963 27.5176 5.98258 27.5823 6.11166 27.6471C6.22461 27.7118 6.35369 27.7765 6.48277 27.8251C6.57958 27.8736 6.69252 27.906 6.80547 27.9383C6.82163 27.9545 6.83771 27.9545 6.87003 27.9707C6.9346 27.9869 7.01524 28.003 7.07978 28.0192C7.03138 28.893 7.01522 29.7182 7.14435 30.0095C7.28956 30.3331 7.9995 29.346 8.70945 28.2134C8.61264 29.3299 8.54809 30.6405 8.70945 31.0289C8.88693 31.4334 9.85503 30.1713 10.6941 28.7797C22.1338 26.126 32.5732 34.0547 33.6703 45.2519C33.4606 43.5044 31.3146 42.5335 30.3304 42.7762C29.8463 43.9736 29.0235 45.5108 27.7004 46.4655C27.8133 45.3976 27.7649 44.2973 27.539 43.2293C27.1841 44.718 26.4903 46.1095 25.5383 47.3069C24.0055 47.4202 22.4726 46.6759 21.6659 45.5594C21.6013 45.5108 21.5852 45.4137 21.5368 45.349C21.4884 45.2357 21.44 45.1225 21.4077 45.0092C21.3593 44.896 21.327 44.7827 21.3109 44.6694C21.2947 44.5561 21.2947 44.4429 21.2947 44.3134C21.2947 44.2325 21.2947 44.1516 21.2947 44.0707C21.3109 43.9575 21.3431 43.8442 21.3754 43.7309C21.4077 43.6177 21.44 43.5044 21.4884 43.3911C21.5529 43.2779 21.6013 43.1646 21.682 43.0513C21.9563 42.2746 21.9563 41.6436 21.4561 41.2714C21.3593 41.2067 21.2625 41.1581 21.1495 41.1096C21.085 41.0934 21.0043 41.0611 20.9398 41.0449C20.8914 41.0287 20.8591 41.0125 20.8107 40.9963C20.6977 40.964 20.5848 40.9316 20.4719 40.9154C20.3589 40.8831 20.246 40.8669 20.133 40.8669C20.0201 40.8506 19.891 40.8345 19.778 40.8345C19.6974 40.8345 19.6167 40.8507 19.536 40.8507C19.4069 40.8507 19.294 40.867 19.1811 40.8993C19.0681 40.9155 18.9552 40.9316 18.8422 40.964C18.7293 40.9964 18.6163 41.0288 18.5034 41.0773C18.3904 41.1258 18.2936 41.1744 18.1807 41.2229C18.0839 41.2715 17.9871 41.3362 17.8741 41.3847C14.1146 43.8442 16.3574 49.6047 18.9229 51.2713C17.9548 51.4493 16.9706 51.6596 16.6963 51.87C16.6801 51.8862 16.664 51.9023 16.664 51.9023C17.3578 52.323 18.0839 52.679 18.8422 52.9865C19.8749 53.3263 20.9721 53.6337 21.4561 53.7631V53.7793C22.7953 54.0544 24.1507 54.1515 25.5221 54.0706C32.67 53.569 38.527 48.116 39.5919 40.9317C39.6241 41.0773 39.6565 41.2067 39.6887 41.3524C39.7371 41.6436 39.8017 41.9511 39.8339 42.2585V42.2747C39.8662 42.4203 39.8823 42.566 39.8985 42.6954V42.7602C39.9147 42.9058 39.9307 43.0514 39.9307 43.1809C39.9469 43.3589 39.963 43.5369 39.963 43.7149V43.9737C39.963 44.0547 39.9791 44.1517 39.9791 44.2326C39.9791 44.3297 39.963 44.4268 39.963 44.5239V44.7504C39.963 44.8637 39.9468 44.9608 39.9468 45.074C39.9468 45.1388 39.9468 45.2035 39.9306 45.2844C39.9306 45.3977 39.9145 45.5109 39.9145 45.6404C39.8983 45.6889 39.8983 45.7375 39.8983 45.786C39.8822 45.9155 39.8661 46.0287 39.8499 46.1582C39.8499 46.2067 39.8499 46.2553 39.8337 46.3038C39.8176 46.4656 39.7853 46.6112 39.7692 46.7731V46.7893V46.8055C39.7369 46.9511 39.7046 47.1129 39.6724 47.2585V47.3071C39.6401 47.4527 39.6078 47.5983 39.5756 47.744C39.5756 47.7602 39.5594 47.7925 39.5594 47.8087C39.5272 47.9543 39.4948 48.1 39.4465 48.2456V48.2942C39.3981 48.456 39.3497 48.6016 39.3174 48.7472C39.3012 48.7634 39.3012 48.7796 39.3012 48.7796C39.2528 48.9414 39.2044 49.1032 39.156 49.265C39.0915 49.4268 39.0431 49.5724 38.9785 49.7342C38.914 49.896 38.8656 50.0578 38.801 50.2035C38.7365 50.3653 38.672 50.5109 38.6074 50.6727H38.5912C38.5267 50.8184 38.4622 50.9802 38.3815 51.1258C38.3653 51.1743 38.3492 51.2067 38.3331 51.2391C38.3169 51.2553 38.3169 51.2714 38.3008 51.2876C37.2521 53.4073 35.7031 55.2681 33.7669 56.7244C33.6378 56.8053 33.5087 56.9024 33.3797 56.9995C33.3474 57.0318 33.299 57.048 33.2667 57.0804C33.1538 57.1613 33.0408 57.2422 32.9117 57.3231L32.9601 57.4202H32.9763C33.2022 57.3879 33.4281 57.3554 33.654 57.3231H33.6701C34.0896 57.2584 34.5092 57.1775 34.9287 57.0966C35.0416 57.0803 35.1707 57.048 35.2836 57.0157C35.3643 56.9994 35.4288 56.9833 35.5095 56.9671C35.6225 56.9509 35.7354 56.9186 35.8484 56.9024C35.9452 56.87 36.042 56.8538 36.1388 56.8215C37.7523 56.4331 39.3174 55.8991 40.8179 55.2681C38.2525 58.7794 34.8157 61.611 30.7981 63.4718C32.6536 63.3424 34.5091 63.035 36.3001 62.5172C42.8026 60.5916 48.2723 56.2066 51.5477 50.3005C50.8862 54.0383 49.4018 57.5981 47.2074 60.7049C48.7725 59.6693 50.2085 58.4719 51.5155 57.1127C55.1297 53.3264 57.5016 48.5206 58.3083 43.3589C58.8569 45.9155 59.0183 48.553 58.7762 51.1581C70.4257 34.8639 59.7443 17.971 55.2749 13.5212C55.2588 13.4889 55.2427 13.4726 55.2427 13.4403C55.2265 13.4565 55.2265 13.4565 55.2265 13.4726C55.2265 13.4564 55.2265 13.4564 55.2104 13.4403C55.2104 13.6345 55.1942 13.8286 55.1781 14.0228C55.1297 14.395 55.0813 14.7509 55.0168 15.1069C54.9361 15.4629 54.8393 15.8189 54.7425 16.1749C54.6295 16.5147 54.5004 16.8706 54.3552 17.2105C54.21 17.5341 54.0487 17.8739 53.8712 18.1975C53.6937 18.5049 53.5001 18.8286 53.2903 19.1198C53.0806 19.4272 52.8547 19.7185 52.6288 19.9936C52.3867 20.2848 52.1286 20.5437 51.8704 20.8026C51.7091 20.9483 51.5639 21.0777 51.4025 21.2071C51.2734 21.3204 51.1605 21.4175 51.0314 21.5308C50.741 21.7573 50.4505 21.9677 50.1278 22.1618C49.8213 22.356 49.4986 22.5502 49.1759 22.712C48.837 22.8738 48.4982 23.0194 48.1594 23.165C47.8205 23.2945 47.4656 23.4078 47.1106 23.5049C46.7556 23.6019 46.3845 23.6828 46.0295 23.7476C45.6584 23.8123 45.2873 23.8446 44.9324 23.877C44.6742 23.8932 44.416 23.9094 44.1579 23.9094C43.7868 23.9094 43.4157 23.877 43.0607 23.8446C42.6896 23.8123 42.3185 23.7637 41.9635 23.6828C41.5924 23.618 41.2374 23.521 40.8825 23.4077H40.8663C41.2213 23.3754 41.5763 23.343 41.9312 23.2783C42.3023 23.2135 42.6573 23.1326 43.0123 23.0355C43.3672 22.9385 43.7222 22.8252 44.0611 22.6957C44.416 22.5663 44.7549 22.4045 45.0776 22.2427C45.4164 22.0809 45.723 21.9029 46.0457 21.7087C46.3522 21.4984 46.6588 21.288 46.9492 21.0615C47.2397 20.8349 47.5139 20.5922 47.7721 20.3333C48.0464 20.0906 48.2884 19.8155 48.5305 19.5405C48.7725 19.2492 48.9984 18.9579 49.2081 18.6667C49.2404 18.6181 49.2727 18.5534 49.3049 18.5049C49.4663 18.246 49.6276 17.9871 49.7729 17.7282C49.9503 17.4046 50.1117 17.0809 50.2569 16.7412C50.4021 16.4014 50.5312 16.0615 50.6441 15.7056C50.7571 15.3658 50.8378 15.0098 50.9184 14.6538C50.983 14.2816 51.0475 13.9257 51.0798 13.5697C51.112 13.1975 51.1444 12.8254 51.1444 12.4694C51.1444 12.2105 51.1282 11.9516 51.1121 11.6927C51.0799 11.3205 51.0314 10.9645 50.983 10.6086C50.9185 10.2364 50.8378 9.88043 50.741 9.52444C50.6281 9.18464 50.5151 8.82866 50.386 8.48886C50.257 8.14906 50.0956 7.80926 49.9342 7.48564C49.7568 7.16202 49.5793 6.8384 49.3857 6.53096C49.1759 6.22353 48.9661 5.93227 48.7403 5.64101C48.4982 5.36593 48.2562 5.09086 47.998 4.81578C47.869 4.68634 47.7238 4.54071 47.5785 4.41126C46.8525 3.84492 46.0941 3.31095 45.3358 2.82552C45.2228 2.76077 45.126 2.71225 45.0131 2.66371C44.4806 2.32391 43.9804 2.14583 43.4802 1.98402Z" fill="#E0234E"/>
</svg>
